# Export of Detection_Menu
# from Aaro4130 OBJ Exporter v2.0
mtllib inflator.mtl
g Cube (1)
v -1.382137 4.687057 12.19105
v -1.251998 4.6422 12.54525
v -1.409809 5.080548 12.25105
v -1.27967 5.035692 12.60525
v -1.251998 4.6422 12.54525
v -1.608045 4.598066 12.67048
v -1.27967 5.035692 12.60525
v -1.635716 4.991558 12.73048
v -1.608045 4.598066 12.67048
v -1.738184 4.642923 12.31629
v -1.635716 4.991558 12.73048
v -1.765855 5.036414 12.37629
v -1.738184 4.642923 12.31629
v -1.382137 4.687057 12.19105
v -1.765855 5.036414 12.37629
v -1.409809 5.080548 12.25105
v -1.409809 5.080548 12.25105
v -1.27967 5.035692 12.60525
v -1.765855 5.036414 12.37629
v -1.635716 4.991558 12.73048
v -1.738184 4.642923 12.31629
v -1.608045 4.598066 12.67048
v -1.382137 4.687057 12.19105
v -1.251998 4.6422 12.54525
vn 0.531946 0.06593789 -0.1870997
vn 0.531946 0.06593789 -0.1870997
vn 0.531946 0.06593789 -0.1870997
vn 0.531946 0.06593789 -0.1870997
vn 0.194432 -0.06701707 0.5291744
vn 0.194432 -0.06701707 0.5291744
vn 0.194432 -0.06701707 0.5291744
vn 0.194432 -0.06701707 0.5291744
vn -0.531946 -0.06593789 0.1870997
vn -0.531946 -0.06593789 0.1870997
vn -0.531946 -0.06593789 0.1870997
vn -0.531946 -0.06593789 0.1870997
vn -0.194432 0.06701707 -0.5291744
vn -0.194432 0.06701707 -0.5291744
vn -0.194432 0.06701707 -0.5291744
vn -0.194432 0.06701707 -0.5291744
vn -0.04134243 0.587889 0.0896432
vn -0.04134243 0.587889 0.0896432
vn -0.04134243 0.587889 0.0896432
vn -0.04134243 0.587889 0.0896432
vn 0.04134243 -0.587889 -0.0896432
vn 0.04134243 -0.587889 -0.0896432
vn 0.04134243 -0.587889 -0.0896432
vn 0.04134243 -0.587889 -0.0896432
vt 0 0
vt -1 0
vt 0 1
vt -1 1
vt 0 0
vt -1 0
vt 0 1
vt -1 1
vt 1 0
vt 0 0
vt 1 1
vt 0 1
vt 1 0
vt 0 0
vt 1 1
vt 0 1
vt 0 0
vt 1 0
vt 0 -1
vt 1 -1
vt 0 -1
vt -1 -1
vt 0 0
vt -1 0
usemtl Knife
f 3/3/3 2/2/2 1/1/1
f 3/3/3 4/4/4 2/2/2
f 7/7/7 6/6/6 5/5/5
f 7/7/7 8/8/8 6/6/6
f 11/11/11 10/10/10 9/9/9
f 11/11/11 12/12/12 10/10/10
f 15/15/15 14/14/14 13/13/13
f 15/15/15 16/16/16 14/14/14
f 19/19/19 18/18/18 17/17/17
f 19/19/19 20/20/20 18/18/18
f 23/23/23 22/22/22 21/21/21
f 23/23/23 24/24/24 22/22/22
g Cube (3)
v -1.332644 5.09181 12.18499
v -1.176477 5.037982 12.61002
v -1.33528 5.129285 12.19071
v -1.179113 5.075458 12.61574
v -1.176477 5.037982 12.61002
v -1.710548 4.971781 12.79787
v -1.179113 5.075458 12.61574
v -1.713183 5.009256 12.80358
v -1.710548 4.971781 12.79787
v -1.866714 5.025609 12.37284
v -1.713183 5.009256 12.80358
v -1.86935 5.063084 12.37855
v -1.866714 5.025609 12.37284
v -1.332644 5.09181 12.18499
v -1.86935 5.063084 12.37855
v -1.33528 5.129285 12.19071
v -1.33528 5.129285 12.19071
v -1.179113 5.075458 12.61574
v -1.86935 5.063084 12.37855
v -1.713183 5.009256 12.80358
v -1.866714 5.025609 12.37284
v -1.710548 4.971781 12.79787
v -1.332644 5.09181 12.18499
v -1.176477 5.037982 12.61002
vn 0.7306575 0.09056937 -0.2569919
vn 0.7306575 0.09056937 -0.2569919
vn 0.7306575 0.09056937 -0.2569919
vn 0.7306575 0.09056937 -0.2569919
vn 0.2136506 -0.07364135 0.5814805
vn 0.2136506 -0.07364135 0.5814805
vn 0.2136506 -0.07364135 0.5814805
vn 0.2136506 -0.07364135 0.5814805
vn -0.7306575 -0.09056937 0.2569919
vn -0.7306575 -0.09056937 0.2569919
vn -0.7306575 -0.09056937 0.2569919
vn -0.7306575 -0.09056937 0.2569919
vn -0.2136506 0.07364135 -0.5814805
vn -0.2136506 0.07364135 -0.5814805
vn -0.2136506 0.07364135 -0.5814805
vn -0.2136506 0.07364135 -0.5814805
vn -0.003605469 0.05126974 0.007817774
vn -0.003605469 0.05126974 0.007817774
vn -0.003605469 0.05126974 0.007817774
vn -0.003605469 0.05126974 0.007817774
vn 0.003605469 -0.05126974 -0.007817774
vn 0.003605469 -0.05126974 -0.007817774
vn 0.003605469 -0.05126974 -0.007817774
vn 0.003605469 -0.05126974 -0.007817774
vt 0 0
vt -1 0
vt 0 1
vt -1 1
vt 0 0
vt -1 0
vt 0 1
vt -1 1
vt 1 0
vt 0 0
vt 1 1
vt 0 1
vt 1 0
vt 0 0
vt 1 1
vt 0 1
vt 0 0
vt 1 0
vt 0 -1
vt 1 -1
vt 0 -1
vt -1 -1
vt 0 0
vt -1 0
usemtl Red
f 27/27/27 26/26/26 25/25/25
f 27/27/27 28/28/28 26/26/26
f 31/31/31 30/30/30 29/29/29
f 31/31/31 32/32/32 30/30/30
f 35/35/35 34/34/34 33/33/33
f 35/35/35 36/36/36 34/34/34
f 39/39/39 38/38/38 37/37/37
f 39/39/39 40/40/40 38/38/38
f 43/43/43 42/42/42 41/41/41
f 43/43/43 44/44/44 42/42/42
f 47/47/47 46/46/46 45/45/45
f 47/47/47 48/48/48 46/46/46
g Stairs (1)
v -1.27976 5.036983 12.60544
v -1.409899 5.08184 12.25125
v -1.212161 4.978538 12.5732
v -1.3423 5.023394 12.21901
v -1.212161 4.978538 12.5732
v -1.3423 5.023394 12.21901
v -1.270443 4.904488 12.58524
v -1.400582 4.949345 12.23105
v -1.270443 4.904488 12.58524
v -1.400582 4.949345 12.23105
v -1.202843 4.846043 12.553
v -1.332982 4.890899 12.19881
v -1.202843 4.846043 12.553
v -1.332982 4.890899 12.19881
v -1.261125 4.771993 12.56504
v -1.391264 4.816849 12.21084
v -1.261125 4.771993 12.56504
v -1.391264 4.816849 12.21084
v -1.193526 4.713547 12.5328
v -1.323665 4.758403 12.17861
v -1.193526 4.713547 12.5328
v -1.323665 4.758403 12.17861
v -1.251808 4.639497 12.54483
v -1.381947 4.684354 12.19064
v -1.400582 4.949345 12.23105
v -1.3423 5.023394 12.21901
v -1.409899 5.08184 12.25125
v -1.391264 4.816849 12.21084
v -1.332982 4.890899 12.19881
v -1.381947 4.684354 12.19064
v -1.323665 4.758403 12.17861
v -1.27976 5.036983 12.60544
v -1.212161 4.978538 12.5732
v -1.270443 4.904488 12.58524
v -1.202843 4.846043 12.553
v -1.261125 4.771993 12.56504
v -1.193526 4.713547 12.5328
v -1.251808 4.639497 12.54483
vn 0.3542014 0.4500266 -0.07314915
vn 0.3542014 0.4500266 -0.07314915
vn 0.3542014 0.4500266 -0.07314915
vn 0.3542014 0.4500266 -0.07314915
vn 0.4108275 -0.3551967 -0.1959322
vn 0.4108275 -0.3551967 -0.1959322
vn 0.4108275 -0.3551967 -0.1959322
vn 0.4108275 -0.3551967 -0.1959322
vn 0.3542014 0.4500266 -0.07314915
vn 0.3542014 0.4500266 -0.07314915
vn 0.3542014 0.4500266 -0.07314915
vn 0.3542014 0.4500266 -0.07314915
vn 0.4108275 -0.3551967 -0.1959322
vn 0.4108275 -0.3551967 -0.1959322
vn 0.4108275 -0.3551967 -0.1959322
vn 0.4108275 -0.3551967 -0.1959322
vn 0.3542014 0.4500266 -0.07314915
vn 0.3542014 0.4500266 -0.07314915
vn 0.3542014 0.4500266 -0.07314915
vn 0.3542014 0.4500266 -0.07314915
vn 0.4108275 -0.3551967 -0.1959322
vn 0.4108275 -0.3551967 -0.1959322
vn 0.4108275 -0.3551967 -0.1959322
vn 0.4108275 -0.3551967 -0.1959322
vn -0.1977258 0.0681523 -0.5381386
vn -0.1977258 0.0681523 -0.5381386
vn -0.1977258 0.0681523 -0.5381386
vn -0.1977258 0.0681523 -0.5381386
vn -0.1977258 0.0681523 -0.5381386
vn -0.1977258 0.0681523 -0.5381386
vn -0.1977258 0.0681523 -0.5381386
vn 0.1977258 -0.0681523 0.5381386
vn 0.1977258 -0.0681523 0.5381386
vn 0.1977258 -0.0681523 0.5381386
vn 0.1977258 -0.0681523 0.5381386
vn 0.1977258 -0.0681523 0.5381386
vn 0.1977258 -0.0681523 0.5381386
vn 0.1977258 -0.0681523 0.5381386
vt 0 0.25
vt -1 0.25
vt 0 0.5
vt -1 0.5
vt 0 0.25
vt -1 0.25
vt 0 0.5
vt -1 0.5
vt 0 0.5
vt -1 0.5
vt 0 0.75
vt -1 0.75
vt 0 0.5
vt -1 0.5
vt 0 0.75
vt -1 0.75
vt 0 0.75
vt -1 0.75
vt 0 1
vt -1 1
vt 0 0.75
vt -1 0.75
vt 0 1
vt -1 1
vt -0.5 0.5
vt -0.25 0.5
vt -0.25 0.25
vt -0.75 0.75
vt -0.5 0.75
vt -1 1
vt -0.75 1
vt 0.25 0.25
vt 0.25 0.5
vt 0.5 0.5
vt 0.5 0.75
vt 0.75 0.75
vt 0.75 1
vt 1 1
usemtl Knife
f 51/51/51 50/50/50 49/49/49
f 51/51/51 52/52/52 50/50/50
f 55/55/55 54/54/54 53/53/53
f 55/55/55 56/56/56 54/54/54
f 59/59/59 58/58/58 57/57/57
f 59/59/59 60/60/60 58/58/58
f 63/63/63 62/62/62 61/61/61
f 63/63/63 64/64/64 62/62/62
f 67/67/67 66/66/66 65/65/65
f 67/67/67 68/68/68 66/66/66
f 71/71/71 70/70/70 69/69/69
f 71/71/71 72/72/72 70/70/70
f 75/75/75 74/74/74 73/73/73
f 73/73/73 77/77/77 76/76/76
f 76/76/76 79/79/79 78/78/78
f 82/82/82 81/81/81 80/80/80
f 84/84/84 83/83/83 82/82/82
f 86/86/86 85/85/85 84/84/84
g Stairs
v -1.60798 4.59715 12.67034
v -1.738119 4.642006 12.31615
v -1.67558 4.655596 12.70258
v -1.805719 4.700452 12.34838
v -1.67558 4.655596 12.70258
v -1.805719 4.700452 12.34838
v -1.617298 4.729645 12.69054
v -1.747437 4.774501 12.33635
v -1.617298 4.729645 12.69054
v -1.747437 4.774501 12.33635
v -1.684897 4.788091 12.72278
v -1.815036 4.832947 12.36859
v -1.684897 4.788091 12.72278
v -1.815036 4.832947 12.36859
v -1.626615 4.862141 12.71074
v -1.756754 4.906997 12.35655
v -1.626615 4.862141 12.71074
v -1.756754 4.906997 12.35655
v -1.694215 4.920586 12.74298
v -1.824354 4.965443 12.38879
v -1.694215 4.920586 12.74298
v -1.824354 4.965443 12.38879
v -1.635933 4.994636 12.73095
v -1.766072 5.039492 12.37676
v -1.747437 4.774501 12.33635
v -1.805719 4.700452 12.34838
v -1.738119 4.642006 12.31615
v -1.756754 4.906997 12.35655
v -1.815036 4.832947 12.36859
v -1.766072 5.039492 12.37676
v -1.824354 4.965443 12.38879
v -1.60798 4.59715 12.67034
v -1.67558 4.655596 12.70258
v -1.617298 4.729645 12.69054
v -1.684897 4.788091 12.72278
v -1.626615 4.862141 12.71074
v -1.694215 4.920586 12.74298
v -1.635933 4.994636 12.73095
vn -0.3542014 -0.4500266 0.07314923
vn -0.3542014 -0.4500266 0.07314923
vn -0.3542014 -0.4500266 0.07314923
vn -0.3542014 -0.4500266 0.07314923
vn -0.4108275 0.3551967 0.1959322
vn -0.4108275 0.3551967 0.1959322
vn -0.4108275 0.3551967 0.1959322
vn -0.4108275 0.3551967 0.1959322
vn -0.3542014 -0.4500266 0.07314923
vn -0.3542014 -0.4500266 0.07314923
vn -0.3542014 -0.4500266 0.07314923
vn -0.3542014 -0.4500266 0.07314923
vn -0.4108275 0.3551967 0.1959322
vn -0.4108275 0.3551967 0.1959322
vn -0.4108275 0.3551967 0.1959322
vn -0.4108275 0.3551967 0.1959322
vn -0.3542014 -0.4500266 0.07314923
vn -0.3542014 -0.4500266 0.07314923
vn -0.3542014 -0.4500266 0.07314923
vn -0.3542014 -0.4500266 0.07314923
vn -0.4108275 0.3551967 0.1959322
vn -0.4108275 0.3551967 0.1959322
vn -0.4108275 0.3551967 0.1959322
vn -0.4108275 0.3551967 0.1959322
vn -0.1977258 0.0681523 -0.5381386
vn -0.1977258 0.0681523 -0.5381386
vn -0.1977258 0.0681523 -0.5381386
vn -0.1977258 0.0681523 -0.5381386
vn -0.1977258 0.0681523 -0.5381386
vn -0.1977258 0.0681523 -0.5381386
vn -0.1977258 0.0681523 -0.5381386
vn 0.1977258 -0.0681523 0.5381386
vn 0.1977258 -0.0681523 0.5381386
vn 0.1977258 -0.0681523 0.5381386
vn 0.1977258 -0.0681523 0.5381386
vn 0.1977258 -0.0681523 0.5381386
vn 0.1977258 -0.0681523 0.5381386
vn 0.1977258 -0.0681523 0.5381386
vt 0 0.25
vt -1 0.25
vt 0 0.5
vt -1 0.5
vt 0 0.25
vt -1 0.25
vt 0 0.5
vt -1 0.5
vt 0 0.5
vt -1 0.5
vt 0 0.75
vt -1 0.75
vt 0 0.5
vt -1 0.5
vt 0 0.75
vt -1 0.75
vt 0 0.75
vt -1 0.75
vt 0 1
vt -1 1
vt 0 0.75
vt -1 0.75
vt 0 1
vt -1 1
vt -0.5 0.5
vt -0.25 0.5
vt -0.25 0.25
vt -0.75 0.75
vt -0.5 0.75
vt -1 1
vt -0.75 1
vt 0.25 0.25
vt 0.25 0.5
vt 0.5 0.5
vt 0.5 0.75
vt 0.75 0.75
vt 0.75 1
vt 1 1
usemtl Knife
f 89/89/89 88/88/88 87/87/87
f 89/89/89 90/90/90 88/88/88
f 93/93/93 92/92/92 91/91/91
f 93/93/93 94/94/94 92/92/92
f 97/97/97 96/96/96 95/95/95
f 97/97/97 98/98/98 96/96/96
f 101/101/101 100/100/100 99/99/99
f 101/101/101 102/102/102 100/100/100
f 105/105/105 104/104/104 103/103/103
f 105/105/105 106/106/106 104/104/104
f 109/109/109 108/108/108 107/107/107
f 109/109/109 110/110/110 108/108/108
f 113/113/113 112/112/112 111/111/111
f 111/111/111 115/115/115 114/114/114
f 114/114/114 117/117/117 116/116/116
f 120/120/120 119/119/119 118/118/118
f 122/122/122 121/121/121 120/120/120
f 124/124/124 123/123/123 122/122/122
g Cube (2)
v -1.302891 4.668714 12.12048
v -1.146724 4.614886 12.54551
v -1.305526 4.706189 12.12619
v -1.149359 4.652361 12.55122
v -1.146724 4.614886 12.54551
v -1.680794 4.548685 12.73335
v -1.149359 4.652361 12.55122
v -1.683429 4.58616 12.73907
v -1.680794 4.548685 12.73335
v -1.836961 4.602512 12.30832
v -1.683429 4.58616 12.73907
v -1.839596 4.639988 12.31404
v -1.836961 4.602512 12.30832
v -1.302891 4.668714 12.12048
v -1.839596 4.639988 12.31404
v -1.305526 4.706189 12.12619
v -1.305526 4.706189 12.12619
v -1.149359 4.652361 12.55122
v -1.839596 4.639988 12.31404
v -1.683429 4.58616 12.73907
v -1.836961 4.602512 12.30832
v -1.680794 4.548685 12.73335
v -1.302891 4.668714 12.12048
v -1.146724 4.614886 12.54551
vn 0.7306575 0.09056937 -0.2569919
vn 0.7306575 0.09056937 -0.2569919
vn 0.7306575 0.09056937 -0.2569919
vn 0.7306575 0.09056937 -0.2569919
vn 0.2136506 -0.07364135 0.5814805
vn 0.2136506 -0.07364135 0.5814805
vn 0.2136506 -0.07364135 0.5814805
vn 0.2136506 -0.07364135 0.5814805
vn -0.7306575 -0.09056937 0.2569919
vn -0.7306575 -0.09056937 0.2569919
vn -0.7306575 -0.09056937 0.2569919
vn -0.7306575 -0.09056937 0.2569919
vn -0.2136506 0.07364135 -0.5814805
vn -0.2136506 0.07364135 -0.5814805
vn -0.2136506 0.07364135 -0.5814805
vn -0.2136506 0.07364135 -0.5814805
vn -0.003605469 0.05126974 0.007817774
vn -0.003605469 0.05126974 0.007817774
vn -0.003605469 0.05126974 0.007817774
vn -0.003605469 0.05126974 0.007817774
vn 0.003605469 -0.05126974 -0.007817774
vn 0.003605469 -0.05126974 -0.007817774
vn 0.003605469 -0.05126974 -0.007817774
vn 0.003605469 -0.05126974 -0.007817774
vt 0 0
vt -1 0
vt 0 1
vt -1 1
vt 0 0
vt -1 0
vt 0 1
vt -1 1
vt 1 0
vt 0 0
vt 1 1
vt 0 1
vt 1 0
vt 0 0
vt 1 1
vt 0 1
vt 0 0
vt 1 0
vt 0 -1
vt 1 -1
vt 0 -1
vt -1 -1
vt 0 0
vt -1 0
usemtl Red
f 127/127/127 126/126/126 125/125/125
f 127/127/127 128/128/128 126/126/126
f 131/131/131 130/130/130 129/129/129
f 131/131/131 132/132/132 130/130/130
f 135/135/135 134/134/134 133/133/133
f 135/135/135 136/136/136 134/134/134
f 139/139/139 138/138/138 137/137/137
f 139/139/139 140/140/140 138/138/138
f 143/143/143 142/142/142 141/141/141
f 143/143/143 144/144/144 142/142/142
f 147/147/147 146/146/146 145/145/145
f 147/147/147 148/148/148 146/146/146
